<?xml version="1.0" standalone="no"?>
<!DOCTYPE svg PUBLIC "-//W3C//DTD SVG 20010904//EN"
 "http://www.w3.org/TR/2001/REC-SVG-20010904/DTD/svg10.dtd">
<svg version="1.0" xmlns="http://www.w3.org/2000/svg"
 width="3464.000000pt" height="1300.000000pt" viewBox="0 0 3464.000000 1300.000000"
 preserveAspectRatio="xMidYMid meet">

<g transform="translate(0.000000,1300.000000) scale(0.100000,-0.100000)"
fill="#000000" stroke="none">
<path d="M6460 12963 c-137 -68 -236 -193 -296 -373 l-29 -85 -5 -2225 -5
-2225 -22 -40 c-28 -53 -59 -80 -113 -102 -43 -17 -193 -18 -2955 -23 -2497
-5 -2919 -8 -2970 -20 l-60 -15 -3 -1057 -2 -1058 227 -2 c126 -1 1463 -2
2973 -3 l2745 0 45 -21 c57 -26 106 -68 128 -108 14 -25 17 -58 17 -186 0
-143 -2 -158 -22 -191 -31 -49 -86 -85 -158 -104 -53 -13 -349 -15 -2685 -15
-1444 0 -2770 -3 -2947 -7 l-323 -6 0 -1084 0 -1083 1198 0 c958 0 1237 3
1397 15 164 12 484 15 1783 15 1728 0 1611 4 1689 -56 72 -55 67 15 74 -1019
6 -1007 6 -1008 64 -1238 52 -203 123 -338 245 -458 71 -72 103 -94 185 -135
l98 -49 10091 3 c7170 1 10129 5 10221 13 255 21 426 86 561 212 125 117 209
262 260 453 l27 99 9 720 c7 467 7 1120 0 1855 -10 1261 -5 1174 -79 1330 -27
55 -55 94 -107 145 -93 92 -184 137 -366 181 -71 17 -209 19 -2460 24 l-2385
5 -40 22 c-54 29 -79 57 -111 127 -53 116 -55 478 -3 595 25 57 44 78 94 104
100 51 -281 48 6005 53 3898 3 5881 8 5933 15 114 15 173 36 218 76 l39 35 0
983 0 983 -34 30 c-19 16 -49 35 -68 41 -117 38 -589 63 -758 40 -76 -10
-1367 -14 -6365 -19 l-6270 -6 -110 -21 c-204 -41 -332 -100 -436 -203 -54
-53 -76 -86 -117 -170 -56 -118 -76 -189 -98 -352 -12 -95 -14 -358 -10 -1829
5 -1516 7 -1729 21 -1820 42 -265 112 -454 227 -606 112 -148 292 -228 570
-253 87 -8 753 -9 2295 -4 1777 6 2180 5 2218 -6 26 -7 62 -28 81 -45 33 -31
34 -35 34 -106 0 -163 -22 -434 -38 -451 -8 -10 -39 -27 -69 -38 -53 -20 -73
-20 -1496 -20 -1207 0 -1474 -2 -1637 -15 -166 -13 -410 -15 -1630 -13 l-1435
3 -68 33 c-47 23 -75 45 -92 70 -31 47 -63 139 -74 216 -14 86 -26 5998 -13
6054 21 90 80 143 196 177 71 20 82 20 3951 25 3093 5 3890 9 3930 19 313 79
463 218 516 476 17 81 19 141 19 605 -1 283 -5 549 -10 590 -32 245 -249 433
-542 471 -105 14 -5335 3 -5513 -11 -73 -6 -2411 -12 -5915 -15 -3508 -4
-5840 -10 -5910 -16 -241 -19 -389 -76 -506 -193 -77 -77 -122 -157 -149 -261
-22 -87 -22 -1139 0 -1244 44 -210 220 -369 475 -431 85 -20 97 -20 3686 -20
4036 0 3669 7 3750 -74 48 -47 69 -105 85 -231 12 -89 29 -5875 18 -6028 -7
-98 -21 -122 -91 -158 -69 -35 -164 -42 -553 -37 -403 5 -399 4 -457 65 -15
15 -37 51 -50 78 l-23 50 -6 2455 c-4 1817 -9 2469 -18 2510 -54 257 -179 397
-426 479 -212 71 110 64 -3620 70 l-3360 6 -44 25 c-81 46 -128 130 -150 271
-7 40 -12 849 -16 2194 -7 2368 -2 2206 -75 2353 -46 91 -136 184 -217 226
l-52 26 -829 0 -829 0 -73 -37z m7193 -7256 c64 -49 81 -94 85 -234 3 -95 0
-133 -13 -172 -21 -65 -89 -136 -141 -150 -26 -7 -842 -9 -2464 -8 -2333 2
-2426 3 -2452 20 -15 10 -37 40 -50 65 -21 43 -23 60 -23 202 0 175 10 210 71
257 74 56 -86 52 2530 50 l2421 -2 36 -28z m-47 -2736 c58 -26 109 -75 136
-129 22 -44 23 -58 23 -242 0 -182 -2 -199 -24 -254 -32 -80 -73 -121 -146
-148 l-60 -22 -2365 -8 c-1301 -4 -2388 -5 -2416 -2 -91 9 -149 64 -179 167
-14 47 -16 94 -13 270 3 226 7 246 61 305 26 28 126 59 227 71 41 5 1119 9
2395 9 2236 2 2321 1 2361 -17z"/>
</g>
</svg>
